<svg xmlns="http://www.w3.org/2000/svg" xmlns:xlink="http://www.w3.org/1999/xlink" width="500" zoomAndPan="magnify" viewBox="0 0 375 374.999991" height="500" preserveAspectRatio="xMidYMid meet" version="1.0"><defs><g/><clipPath id="69452c3711"><path d="M 103.058594 132.796875 L 271.808594 132.796875 L 271.808594 182 L 103.058594 182 Z M 103.058594 132.796875 " clip-rule="nonzero"/></clipPath></defs><g clip-path="url(#69452c3711)"><path fill="#48c354" d="M 156.148438 137.027344 L 184.332031 165.210938 L 265.023438 165.210938 L 272.058594 173.566406 L 265.023438 181.921875 L 257.039062 181.921875 L 254.804688 177.457031 L 249.59375 177.457031 L 247.363281 181.921875 L 242.355469 181.921875 L 240.121094 177.457031 L 234.980469 177.457031 L 232.746094 181.921875 L 227.773438 181.921875 L 225.539062 177.457031 L 220.328125 177.457031 L 218.097656 181.921875 L 184.367188 181.921875 L 152.089844 149.648438 L 119.644531 181.921875 L 102.929688 181.921875 L 120.355469 164.5 L 120.355469 147.617188 L 132.027344 147.617188 L 132.027344 152.828125 C 138.691406 146.164062 145.390625 139.464844 152.054688 132.796875 Z M 187.511719 168.390625 L 188.628906 169.507812 L 264.480469 169.507812 L 264.480469 168.390625 Z M 187.511719 168.390625 " fill-opacity="1" fill-rule="nonzero"/></g><path fill="#48c354" d="M 144.847656 167.441406 L 150.972656 167.441406 L 150.972656 173.734375 L 144.847656 173.734375 Z M 153.003906 167.441406 L 159.125 167.441406 L 159.125 173.734375 L 153.003906 173.734375 Z M 159.125 175.597656 L 159.125 181.890625 L 153.003906 181.890625 L 153.003906 175.597656 Z M 150.972656 181.921875 L 144.847656 181.921875 L 144.847656 175.628906 L 150.972656 175.628906 Z M 150.972656 181.921875 " fill-opacity="1" fill-rule="nonzero"/><g fill="#48c354" fill-opacity="1"><g transform="translate(98.824217, 200.078836)"><g><path d="M 7.859375 -14.109375 C 8.640625 -14.109375 9.363281 -14.015625 10.03125 -13.828125 C 10.695312 -13.640625 11.367188 -13.34375 12.046875 -12.9375 L 12.53125 -13.328125 C 12.875 -13.597656 13.148438 -13.78125 13.359375 -13.875 C 13.578125 -13.976562 13.828125 -14.03125 14.109375 -14.03125 C 14.441406 -14.03125 14.707031 -13.957031 14.90625 -13.8125 C 15.101562 -13.664062 15.203125 -13.453125 15.203125 -13.171875 C 15.203125 -13.054688 15.179688 -12.9375 15.140625 -12.8125 L 14.265625 -9.90625 C 14.160156 -9.570312 14.035156 -9.332031 13.890625 -9.1875 C 13.742188 -9.050781 13.523438 -8.984375 13.234375 -8.984375 C 12.921875 -8.984375 12.648438 -9.078125 12.421875 -9.265625 C 12.191406 -9.460938 11.832031 -9.851562 11.34375 -10.4375 C 10.851562 -11 10.40625 -11.394531 10 -11.625 C 9.601562 -11.851562 9.195312 -11.96875 8.78125 -11.96875 C 8.46875 -11.96875 8.207031 -11.863281 8 -11.65625 C 7.789062 -11.457031 7.6875 -11.210938 7.6875 -10.921875 C 7.6875 -10.585938 7.851562 -10.273438 8.1875 -9.984375 C 8.519531 -9.703125 9.046875 -9.34375 9.765625 -8.90625 C 10.492188 -8.46875 11.09375 -8.070312 11.5625 -7.71875 C 12.039062 -7.375 12.445312 -6.941406 12.78125 -6.421875 C 13.125 -5.910156 13.296875 -5.316406 13.296875 -4.640625 C 13.296875 -4.203125 13.222656 -3.769531 13.078125 -3.34375 C 12.742188 -2.21875 12.09375 -1.363281 11.125 -0.78125 C 10.164062 -0.207031 9.039062 0.078125 7.75 0.078125 C 6.78125 0.078125 5.96875 -0.03125 5.3125 -0.25 C 4.65625 -0.476562 3.984375 -0.859375 3.296875 -1.390625 L 2.546875 -0.75 C 2.191406 -0.457031 1.898438 -0.257812 1.671875 -0.15625 C 1.453125 -0.0507812 1.203125 0 0.921875 0 C 0.597656 0 0.34375 -0.078125 0.15625 -0.234375 C -0.03125 -0.390625 -0.125 -0.597656 -0.125 -0.859375 C -0.125 -1.003906 -0.0976562 -1.148438 -0.046875 -1.296875 L 0.984375 -4.4375 C 1.097656 -4.800781 1.253906 -5.054688 1.453125 -5.203125 C 1.648438 -5.359375 1.898438 -5.4375 2.203125 -5.4375 C 2.523438 -5.4375 2.816406 -5.320312 3.078125 -5.09375 C 3.335938 -4.875 3.675781 -4.472656 4.09375 -3.890625 C 4.539062 -3.242188 4.957031 -2.789062 5.34375 -2.53125 C 5.726562 -2.28125 6.1875 -2.15625 6.71875 -2.15625 C 7.09375 -2.15625 7.378906 -2.210938 7.578125 -2.328125 C 7.785156 -2.453125 7.929688 -2.648438 8.015625 -2.921875 C 8.046875 -2.992188 8.0625 -3.097656 8.0625 -3.234375 C 8.0625 -3.566406 7.898438 -3.875 7.578125 -4.15625 C 7.253906 -4.4375 6.757812 -4.773438 6.09375 -5.171875 C 5.375 -5.597656 4.789062 -5.984375 4.34375 -6.328125 C 3.894531 -6.671875 3.503906 -7.101562 3.171875 -7.625 C 2.847656 -8.144531 2.6875 -8.753906 2.6875 -9.453125 C 2.6875 -9.941406 2.765625 -10.425781 2.921875 -10.90625 C 3.210938 -11.863281 3.8125 -12.632812 4.71875 -13.21875 C 5.632812 -13.8125 6.679688 -14.109375 7.859375 -14.109375 Z M 7.859375 -14.109375 "/></g></g></g><g fill="#48c354" fill-opacity="1"><g transform="translate(113.293279, 200.078836)"><g><path d="M 12.03125 -5.421875 C 12.425781 -5.421875 12.722656 -5.335938 12.921875 -5.171875 C 13.128906 -5.015625 13.234375 -4.789062 13.234375 -4.5 C 13.234375 -4.375 13.210938 -4.234375 13.171875 -4.078125 L 12.46875 -1.609375 C 12.289062 -1.015625 12.035156 -0.597656 11.703125 -0.359375 C 11.378906 -0.117188 10.894531 0 10.25 0 L 0.375 0 C 0.0820312 0 -0.140625 -0.046875 -0.296875 -0.140625 C -0.460938 -0.242188 -0.546875 -0.378906 -0.546875 -0.546875 C -0.546875 -0.628906 -0.523438 -0.71875 -0.484375 -0.8125 C -0.441406 -0.925781 -0.367188 -1.019531 -0.265625 -1.09375 C -0.171875 -1.175781 -0.0664062 -1.253906 0.046875 -1.328125 C 0.265625 -1.460938 0.441406 -1.601562 0.578125 -1.75 C 0.722656 -1.894531 0.84375 -2.140625 0.9375 -2.484375 L 3.5 -11.53125 C 3.5625 -11.707031 3.59375 -11.878906 3.59375 -12.046875 C 3.59375 -12.203125 3.566406 -12.332031 3.515625 -12.4375 C 3.460938 -12.539062 3.394531 -12.664062 3.3125 -12.8125 C 3.1875 -12.988281 3.125 -13.132812 3.125 -13.25 C 3.125 -13.289062 3.140625 -13.367188 3.171875 -13.484375 C 3.222656 -13.660156 3.34375 -13.785156 3.53125 -13.859375 C 3.726562 -13.941406 4.019531 -13.984375 4.40625 -13.984375 L 9.34375 -13.984375 C 9.632812 -13.984375 9.859375 -13.9375 10.015625 -13.84375 C 10.179688 -13.757812 10.265625 -13.632812 10.265625 -13.46875 C 10.265625 -13.394531 10.242188 -13.300781 10.203125 -13.1875 C 10.160156 -13.09375 10.097656 -13.003906 10.015625 -12.921875 C 9.941406 -12.847656 9.875 -12.789062 9.8125 -12.75 C 9.75 -12.71875 9.707031 -12.6875 9.6875 -12.65625 C 9.457031 -12.53125 9.269531 -12.390625 9.125 -12.234375 C 8.988281 -12.085938 8.875 -11.851562 8.78125 -11.53125 L 6.0625 -2.015625 L 7.375 -2.015625 C 7.695312 -2.015625 7.972656 -2.070312 8.203125 -2.1875 C 8.429688 -2.300781 8.671875 -2.507812 8.921875 -2.8125 L 10.375 -4.53125 C 10.632812 -4.84375 10.890625 -5.066406 11.140625 -5.203125 C 11.390625 -5.347656 11.6875 -5.421875 12.03125 -5.421875 Z M 12.03125 -5.421875 "/></g></g></g><g fill="#48c354" fill-opacity="1"><g transform="translate(126.964333, 200.078836)"><g><path d="M 12.828125 -2.484375 C 12.773438 -2.296875 12.75 -2.113281 12.75 -1.9375 C 12.75 -1.78125 12.769531 -1.648438 12.8125 -1.546875 C 12.851562 -1.441406 12.894531 -1.359375 12.9375 -1.296875 C 12.988281 -1.234375 13.023438 -1.1875 13.046875 -1.15625 C 13.179688 -1.007812 13.25 -0.867188 13.25 -0.734375 C 13.25 -0.703125 13.234375 -0.632812 13.203125 -0.53125 C 13.148438 -0.332031 13.03125 -0.191406 12.84375 -0.109375 C 12.65625 -0.0351562 12.363281 0 11.96875 0 L 7 0 C 6.695312 0 6.460938 -0.046875 6.296875 -0.140625 C 6.140625 -0.242188 6.0625 -0.378906 6.0625 -0.546875 C 6.0625 -0.628906 6.082031 -0.71875 6.125 -0.8125 C 6.164062 -0.925781 6.222656 -1.015625 6.296875 -1.078125 C 6.378906 -1.140625 6.492188 -1.210938 6.640625 -1.296875 C 6.859375 -1.421875 7.035156 -1.5625 7.171875 -1.71875 C 7.316406 -1.875 7.4375 -2.128906 7.53125 -2.484375 L 8.078125 -4.28125 L 4.8125 -4.28125 L 4.234375 -3.09375 C 4.003906 -2.570312 3.890625 -2.164062 3.890625 -1.875 C 3.890625 -1.695312 3.914062 -1.554688 3.96875 -1.453125 C 4.019531 -1.347656 4.101562 -1.242188 4.21875 -1.140625 C 4.320312 -1.023438 4.390625 -0.925781 4.421875 -0.84375 C 4.453125 -0.769531 4.457031 -0.671875 4.4375 -0.546875 C 4.375 -0.335938 4.253906 -0.191406 4.078125 -0.109375 C 3.910156 -0.0351562 3.632812 0 3.25 0 L 0.125 0 C -0.195312 0 -0.441406 -0.0546875 -0.609375 -0.171875 C -0.773438 -0.296875 -0.859375 -0.457031 -0.859375 -0.65625 C -0.859375 -0.875 -0.773438 -1.050781 -0.609375 -1.1875 C -0.453125 -1.320312 -0.210938 -1.460938 0.109375 -1.609375 C 0.523438 -1.828125 0.859375 -2.035156 1.109375 -2.234375 C 1.359375 -2.441406 1.578125 -2.726562 1.765625 -3.09375 L 5.5 -10.84375 C 6.070312 -12.039062 6.742188 -12.910156 7.515625 -13.453125 C 8.296875 -13.992188 9.328125 -14.265625 10.609375 -14.265625 C 12.035156 -14.265625 13.140625 -13.972656 13.921875 -13.390625 C 14.703125 -12.804688 15.09375 -12 15.09375 -10.96875 C 15.09375 -10.53125 15.023438 -10.082031 14.890625 -9.625 Z M 8.71875 -6.390625 L 9.828125 -10.078125 C 9.878906 -10.242188 9.90625 -10.421875 9.90625 -10.609375 C 9.90625 -10.867188 9.832031 -11.066406 9.6875 -11.203125 C 9.539062 -11.335938 9.335938 -11.40625 9.078125 -11.40625 C 8.734375 -11.40625 8.441406 -11.304688 8.203125 -11.109375 C 7.972656 -10.910156 7.738281 -10.5625 7.5 -10.0625 L 5.78125 -6.390625 Z M 8.71875 -6.390625 "/></g></g></g><g fill="#48c354" fill-opacity="1"><g transform="translate(141.622394, 200.078836)"><g><path d="M 7.859375 -14.109375 C 8.640625 -14.109375 9.363281 -14.015625 10.03125 -13.828125 C 10.695312 -13.640625 11.367188 -13.34375 12.046875 -12.9375 L 12.53125 -13.328125 C 12.875 -13.597656 13.148438 -13.78125 13.359375 -13.875 C 13.578125 -13.976562 13.828125 -14.03125 14.109375 -14.03125 C 14.441406 -14.03125 14.707031 -13.957031 14.90625 -13.8125 C 15.101562 -13.664062 15.203125 -13.453125 15.203125 -13.171875 C 15.203125 -13.054688 15.179688 -12.9375 15.140625 -12.8125 L 14.265625 -9.90625 C 14.160156 -9.570312 14.035156 -9.332031 13.890625 -9.1875 C 13.742188 -9.050781 13.523438 -8.984375 13.234375 -8.984375 C 12.921875 -8.984375 12.648438 -9.078125 12.421875 -9.265625 C 12.191406 -9.460938 11.832031 -9.851562 11.34375 -10.4375 C 10.851562 -11 10.40625 -11.394531 10 -11.625 C 9.601562 -11.851562 9.195312 -11.96875 8.78125 -11.96875 C 8.46875 -11.96875 8.207031 -11.863281 8 -11.65625 C 7.789062 -11.457031 7.6875 -11.210938 7.6875 -10.921875 C 7.6875 -10.585938 7.851562 -10.273438 8.1875 -9.984375 C 8.519531 -9.703125 9.046875 -9.34375 9.765625 -8.90625 C 10.492188 -8.46875 11.09375 -8.070312 11.5625 -7.71875 C 12.039062 -7.375 12.445312 -6.941406 12.78125 -6.421875 C 13.125 -5.910156 13.296875 -5.316406 13.296875 -4.640625 C 13.296875 -4.203125 13.222656 -3.769531 13.078125 -3.34375 C 12.742188 -2.21875 12.09375 -1.363281 11.125 -0.78125 C 10.164062 -0.207031 9.039062 0.078125 7.75 0.078125 C 6.78125 0.078125 5.96875 -0.03125 5.3125 -0.25 C 4.65625 -0.476562 3.984375 -0.859375 3.296875 -1.390625 L 2.546875 -0.75 C 2.191406 -0.457031 1.898438 -0.257812 1.671875 -0.15625 C 1.453125 -0.0507812 1.203125 0 0.921875 0 C 0.597656 0 0.34375 -0.078125 0.15625 -0.234375 C -0.03125 -0.390625 -0.125 -0.597656 -0.125 -0.859375 C -0.125 -1.003906 -0.0976562 -1.148438 -0.046875 -1.296875 L 0.984375 -4.4375 C 1.097656 -4.800781 1.253906 -5.054688 1.453125 -5.203125 C 1.648438 -5.359375 1.898438 -5.4375 2.203125 -5.4375 C 2.523438 -5.4375 2.816406 -5.320312 3.078125 -5.09375 C 3.335938 -4.875 3.675781 -4.472656 4.09375 -3.890625 C 4.539062 -3.242188 4.957031 -2.789062 5.34375 -2.53125 C 5.726562 -2.28125 6.1875 -2.15625 6.71875 -2.15625 C 7.09375 -2.15625 7.378906 -2.210938 7.578125 -2.328125 C 7.785156 -2.453125 7.929688 -2.648438 8.015625 -2.921875 C 8.046875 -2.992188 8.0625 -3.097656 8.0625 -3.234375 C 8.0625 -3.566406 7.898438 -3.875 7.578125 -4.15625 C 7.253906 -4.4375 6.757812 -4.773438 6.09375 -5.171875 C 5.375 -5.597656 4.789062 -5.984375 4.34375 -6.328125 C 3.894531 -6.671875 3.503906 -7.101562 3.171875 -7.625 C 2.847656 -8.144531 2.6875 -8.753906 2.6875 -9.453125 C 2.6875 -9.941406 2.765625 -10.425781 2.921875 -10.90625 C 3.210938 -11.863281 3.8125 -12.632812 4.71875 -13.21875 C 5.632812 -13.8125 6.679688 -14.109375 7.859375 -14.109375 Z M 7.859375 -14.109375 "/></g></g></g><g fill="#48c354" fill-opacity="1"><g transform="translate(156.091456, 200.078836)"><g><path d="M 18.359375 -13.984375 C 18.648438 -13.984375 18.875 -13.929688 19.03125 -13.828125 C 19.195312 -13.734375 19.28125 -13.613281 19.28125 -13.46875 C 19.28125 -13.394531 19.257812 -13.300781 19.21875 -13.1875 C 19.175781 -13.09375 19.113281 -13.003906 19.03125 -12.921875 C 18.957031 -12.847656 18.890625 -12.789062 18.828125 -12.75 C 18.765625 -12.71875 18.71875 -12.6875 18.6875 -12.65625 C 18.46875 -12.53125 18.285156 -12.390625 18.140625 -12.234375 C 18.003906 -12.085938 17.882812 -11.851562 17.78125 -11.53125 L 15.203125 -2.484375 C 15.148438 -2.296875 15.125 -2.117188 15.125 -1.953125 C 15.125 -1.785156 15.144531 -1.648438 15.1875 -1.546875 C 15.238281 -1.453125 15.3125 -1.328125 15.40625 -1.171875 C 15.425781 -1.160156 15.46875 -1.109375 15.53125 -1.015625 C 15.59375 -0.921875 15.625 -0.828125 15.625 -0.734375 C 15.625 -0.703125 15.609375 -0.632812 15.578125 -0.53125 C 15.515625 -0.332031 15.382812 -0.191406 15.1875 -0.109375 C 14.988281 -0.0351562 14.691406 0 14.296875 0 L 9.359375 0 C 9.066406 0 8.835938 -0.046875 8.671875 -0.140625 C 8.515625 -0.242188 8.4375 -0.378906 8.4375 -0.546875 C 8.4375 -0.628906 8.457031 -0.71875 8.5 -0.8125 C 8.5625 -0.925781 8.640625 -1.019531 8.734375 -1.09375 C 8.835938 -1.175781 8.9375 -1.242188 9.03125 -1.296875 C 9.25 -1.421875 9.425781 -1.5625 9.5625 -1.71875 C 9.707031 -1.882812 9.832031 -2.140625 9.9375 -2.484375 L 10.9375 -5.984375 L 7.21875 -5.984375 L 6.21875 -2.484375 C 6.15625 -2.296875 6.125 -2.117188 6.125 -1.953125 C 6.125 -1.785156 6.148438 -1.648438 6.203125 -1.546875 C 6.253906 -1.453125 6.328125 -1.328125 6.421875 -1.171875 C 6.441406 -1.160156 6.484375 -1.109375 6.546875 -1.015625 C 6.609375 -0.921875 6.640625 -0.828125 6.640625 -0.734375 C 6.640625 -0.703125 6.625 -0.632812 6.59375 -0.53125 C 6.519531 -0.332031 6.382812 -0.191406 6.1875 -0.109375 C 6 -0.0351562 5.707031 0 5.3125 0 L 0.375 0 C 0.0820312 0 -0.140625 -0.046875 -0.296875 -0.140625 C -0.460938 -0.242188 -0.546875 -0.378906 -0.546875 -0.546875 C -0.546875 -0.628906 -0.523438 -0.71875 -0.484375 -0.8125 C -0.429688 -0.925781 -0.351562 -1.019531 -0.25 -1.09375 C -0.15625 -1.175781 -0.0546875 -1.242188 0.046875 -1.296875 C 0.265625 -1.421875 0.441406 -1.5625 0.578125 -1.71875 C 0.722656 -1.882812 0.84375 -2.140625 0.9375 -2.484375 L 3.53125 -11.53125 C 3.582031 -11.707031 3.609375 -11.878906 3.609375 -12.046875 C 3.609375 -12.203125 3.582031 -12.332031 3.53125 -12.4375 C 3.488281 -12.539062 3.425781 -12.664062 3.34375 -12.8125 C 3.28125 -12.882812 3.226562 -12.957031 3.1875 -13.03125 C 3.144531 -13.101562 3.125 -13.179688 3.125 -13.265625 C 3.125 -13.296875 3.140625 -13.367188 3.171875 -13.484375 C 3.222656 -13.660156 3.347656 -13.785156 3.546875 -13.859375 C 3.742188 -13.941406 4.039062 -13.984375 4.4375 -13.984375 L 9.359375 -13.984375 C 9.660156 -13.984375 9.890625 -13.929688 10.046875 -13.828125 C 10.210938 -13.734375 10.296875 -13.613281 10.296875 -13.46875 C 10.296875 -13.394531 10.273438 -13.300781 10.234375 -13.1875 C 10.179688 -13.09375 10.117188 -13.003906 10.046875 -12.921875 C 9.972656 -12.847656 9.90625 -12.789062 9.84375 -12.75 C 9.78125 -12.71875 9.734375 -12.6875 9.703125 -12.65625 C 9.472656 -12.53125 9.289062 -12.390625 9.15625 -12.234375 C 9.019531 -12.085938 8.898438 -11.851562 8.796875 -11.53125 L 7.8125 -8.078125 L 11.53125 -8.078125 L 12.515625 -11.53125 C 12.566406 -11.707031 12.59375 -11.878906 12.59375 -12.046875 C 12.59375 -12.203125 12.566406 -12.332031 12.515625 -12.4375 C 12.472656 -12.539062 12.410156 -12.664062 12.328125 -12.8125 C 12.273438 -12.882812 12.222656 -12.957031 12.171875 -13.03125 C 12.128906 -13.101562 12.109375 -13.179688 12.109375 -13.265625 C 12.109375 -13.296875 12.125 -13.367188 12.15625 -13.484375 C 12.21875 -13.660156 12.34375 -13.785156 12.53125 -13.859375 C 12.726562 -13.941406 13.023438 -13.984375 13.421875 -13.984375 Z M 18.359375 -13.984375 "/></g></g></g><g fill="#48c354" fill-opacity="1"><g transform="translate(173.605528, 200.078836)"><g/></g></g><g fill="#48c354" fill-opacity="1"><g transform="translate(177.805543, 200.078836)"><g><path d="M 16.046875 -9.71875 C 15.816406 -8.90625 15.394531 -8.269531 14.78125 -7.8125 C 14.164062 -7.363281 13.390625 -7.082031 12.453125 -6.96875 C 13.128906 -6.914062 13.632812 -6.71875 13.96875 -6.375 C 14.300781 -6.039062 14.46875 -5.601562 14.46875 -5.0625 C 14.46875 -4.851562 14.429688 -4.59375 14.359375 -4.28125 L 14.140625 -3.25 C 14.109375 -3.113281 14.09375 -3.019531 14.09375 -2.96875 C 14.09375 -2.78125 14.132812 -2.640625 14.21875 -2.546875 C 14.300781 -2.460938 14.421875 -2.421875 14.578125 -2.421875 C 14.867188 -2.421875 15.078125 -2.375 15.203125 -2.28125 C 15.335938 -2.195312 15.382812 -2.046875 15.34375 -1.828125 C 15.289062 -1.503906 15.125 -1.1875 14.84375 -0.875 C 14.5625 -0.570312 14.164062 -0.316406 13.65625 -0.109375 C 13.144531 0.0859375 12.523438 0.1875 11.796875 0.1875 C 10.878906 0.1875 10.144531 -0.015625 9.59375 -0.421875 C 9.050781 -0.835938 8.78125 -1.429688 8.78125 -2.203125 C 8.78125 -2.492188 8.820312 -2.8125 8.90625 -3.15625 L 9.234375 -4.5 C 9.296875 -4.675781 9.328125 -4.863281 9.328125 -5.0625 C 9.328125 -5.382812 9.21875 -5.613281 9 -5.75 C 8.78125 -5.894531 8.429688 -5.96875 7.953125 -5.96875 L 7.15625 -5.96875 L 6.1875 -2.484375 C 6.164062 -2.398438 6.15625 -2.289062 6.15625 -2.15625 C 6.15625 -1.96875 6.203125 -1.800781 6.296875 -1.65625 C 6.398438 -1.519531 6.535156 -1.375 6.703125 -1.21875 C 6.828125 -1.125 6.921875 -1.03125 6.984375 -0.9375 C 7.054688 -0.84375 7.09375 -0.75 7.09375 -0.65625 C 7.09375 -0.414062 6.976562 -0.242188 6.75 -0.140625 C 6.53125 -0.046875 6.207031 0 5.78125 0 L 0.5 0 C 0.132812 0 -0.132812 -0.0664062 -0.3125 -0.203125 C -0.5 -0.335938 -0.5625 -0.519531 -0.5 -0.75 C -0.476562 -0.875 -0.425781 -0.972656 -0.34375 -1.046875 C -0.269531 -1.128906 -0.15625 -1.222656 0 -1.328125 C 0.238281 -1.460938 0.425781 -1.609375 0.5625 -1.765625 C 0.707031 -1.921875 0.820312 -2.160156 0.90625 -2.484375 L 3.46875 -11.53125 C 3.519531 -11.707031 3.546875 -11.878906 3.546875 -12.046875 C 3.546875 -12.203125 3.519531 -12.332031 3.46875 -12.4375 C 3.425781 -12.539062 3.363281 -12.664062 3.28125 -12.8125 C 3.15625 -12.988281 3.09375 -13.132812 3.09375 -13.25 C 3.09375 -13.289062 3.101562 -13.367188 3.125 -13.484375 C 3.1875 -13.660156 3.3125 -13.785156 3.5 -13.859375 C 3.6875 -13.941406 3.976562 -13.984375 4.375 -13.984375 L 11.40625 -13.984375 C 12.375 -13.984375 13.21875 -13.835938 13.9375 -13.546875 C 14.65625 -13.253906 15.207031 -12.851562 15.59375 -12.34375 C 15.976562 -11.832031 16.171875 -11.253906 16.171875 -10.609375 C 16.171875 -10.304688 16.128906 -10.007812 16.046875 -9.71875 Z M 10.671875 -9.9375 C 10.734375 -10.257812 10.765625 -10.503906 10.765625 -10.671875 C 10.765625 -11.410156 10.363281 -11.78125 9.5625 -11.78125 L 8.671875 -11.78125 L 7.75 -8.0625 L 8.625 -8.0625 C 9.175781 -8.0625 9.609375 -8.191406 9.921875 -8.453125 C 10.234375 -8.722656 10.484375 -9.21875 10.671875 -9.9375 Z M 10.671875 -9.9375 "/></g></g></g><g fill="#48c354" fill-opacity="1"><g transform="translate(193.74461, 200.078836)"><g><path d="M 13.71875 -13.984375 C 14.226562 -13.984375 14.625 -13.867188 14.90625 -13.640625 C 15.195312 -13.421875 15.34375 -13.113281 15.34375 -12.71875 C 15.34375 -12.53125 15.316406 -12.34375 15.265625 -12.15625 L 14.71875 -10.203125 C 14.625 -9.828125 14.476562 -9.566406 14.28125 -9.421875 C 14.09375 -9.273438 13.828125 -9.203125 13.484375 -9.203125 C 13.148438 -9.203125 12.882812 -9.273438 12.6875 -9.421875 C 12.5 -9.566406 12.359375 -9.804688 12.265625 -10.140625 L 11.921875 -11.34375 C 11.859375 -11.59375 11.773438 -11.757812 11.671875 -11.84375 C 11.578125 -11.925781 11.390625 -11.96875 11.109375 -11.96875 L 8.90625 -11.96875 L 7.859375 -8.234375 L 8.78125 -8.234375 C 8.875 -8.234375 9.003906 -8.300781 9.171875 -8.4375 L 9.890625 -9.078125 C 10.097656 -9.253906 10.28125 -9.382812 10.4375 -9.46875 C 10.59375 -9.550781 10.78125 -9.59375 11 -9.59375 C 11.25 -9.59375 11.453125 -9.523438 11.609375 -9.390625 C 11.773438 -9.265625 11.859375 -9.097656 11.859375 -8.890625 C 11.859375 -8.828125 11.847656 -8.738281 11.828125 -8.625 L 10.96875 -5.71875 C 10.882812 -5.40625 10.738281 -5.175781 10.53125 -5.03125 C 10.332031 -4.882812 10.113281 -4.8125 9.875 -4.8125 C 9.476562 -4.8125 9.179688 -5.015625 8.984375 -5.421875 L 8.625 -6.15625 C 8.53125 -6.363281 8.378906 -6.46875 8.171875 -6.46875 L 7.34375 -6.46875 L 6.109375 -2.015625 L 7.953125 -2.015625 C 8.222656 -2.015625 8.457031 -2.066406 8.65625 -2.171875 C 8.863281 -2.273438 9.085938 -2.460938 9.328125 -2.734375 L 10.578125 -4.109375 C 10.804688 -4.347656 11.019531 -4.519531 11.21875 -4.625 C 11.425781 -4.726562 11.675781 -4.78125 11.96875 -4.78125 C 12.28125 -4.78125 12.53125 -4.710938 12.71875 -4.578125 C 12.914062 -4.441406 13.015625 -4.234375 13.015625 -3.953125 C 13.015625 -3.835938 12.992188 -3.703125 12.953125 -3.546875 L 12.34375 -1.421875 C 12.1875 -0.890625 11.960938 -0.519531 11.671875 -0.3125 C 11.378906 -0.101562 10.953125 0 10.390625 0 L 0.375 0 C 0.0820312 0 -0.140625 -0.046875 -0.296875 -0.140625 C -0.460938 -0.242188 -0.546875 -0.378906 -0.546875 -0.546875 C -0.546875 -0.628906 -0.523438 -0.71875 -0.484375 -0.8125 C -0.429688 -0.96875 -0.335938 -1.085938 -0.203125 -1.171875 C -0.078125 -1.253906 -0.00390625 -1.304688 0.015625 -1.328125 C 0.242188 -1.460938 0.425781 -1.601562 0.5625 -1.75 C 0.707031 -1.894531 0.828125 -2.140625 0.921875 -2.484375 L 3.5 -11.53125 C 3.5625 -11.707031 3.59375 -11.875 3.59375 -12.03125 C 3.59375 -12.195312 3.566406 -12.335938 3.515625 -12.453125 C 3.460938 -12.566406 3.390625 -12.6875 3.296875 -12.8125 C 3.171875 -12.988281 3.109375 -13.132812 3.109375 -13.25 C 3.109375 -13.289062 3.125 -13.367188 3.15625 -13.484375 C 3.207031 -13.660156 3.332031 -13.785156 3.53125 -13.859375 C 3.726562 -13.941406 4.015625 -13.984375 4.390625 -13.984375 Z M 13.71875 -13.984375 "/></g></g></g><g fill="#48c354" fill-opacity="1"><g transform="translate(207.835662, 200.078836)"><g><path d="M 12.828125 -2.484375 C 12.773438 -2.296875 12.75 -2.113281 12.75 -1.9375 C 12.75 -1.78125 12.769531 -1.648438 12.8125 -1.546875 C 12.851562 -1.441406 12.894531 -1.359375 12.9375 -1.296875 C 12.988281 -1.234375 13.023438 -1.1875 13.046875 -1.15625 C 13.179688 -1.007812 13.25 -0.867188 13.25 -0.734375 C 13.25 -0.703125 13.234375 -0.632812 13.203125 -0.53125 C 13.148438 -0.332031 13.03125 -0.191406 12.84375 -0.109375 C 12.65625 -0.0351562 12.363281 0 11.96875 0 L 7 0 C 6.695312 0 6.460938 -0.046875 6.296875 -0.140625 C 6.140625 -0.242188 6.0625 -0.378906 6.0625 -0.546875 C 6.0625 -0.628906 6.082031 -0.71875 6.125 -0.8125 C 6.164062 -0.925781 6.222656 -1.015625 6.296875 -1.078125 C 6.378906 -1.140625 6.492188 -1.210938 6.640625 -1.296875 C 6.859375 -1.421875 7.035156 -1.5625 7.171875 -1.71875 C 7.316406 -1.875 7.4375 -2.128906 7.53125 -2.484375 L 8.078125 -4.28125 L 4.8125 -4.28125 L 4.234375 -3.09375 C 4.003906 -2.570312 3.890625 -2.164062 3.890625 -1.875 C 3.890625 -1.695312 3.914062 -1.554688 3.96875 -1.453125 C 4.019531 -1.347656 4.101562 -1.242188 4.21875 -1.140625 C 4.320312 -1.023438 4.390625 -0.925781 4.421875 -0.84375 C 4.453125 -0.769531 4.457031 -0.671875 4.4375 -0.546875 C 4.375 -0.335938 4.253906 -0.191406 4.078125 -0.109375 C 3.910156 -0.0351562 3.632812 0 3.25 0 L 0.125 0 C -0.195312 0 -0.441406 -0.0546875 -0.609375 -0.171875 C -0.773438 -0.296875 -0.859375 -0.457031 -0.859375 -0.65625 C -0.859375 -0.875 -0.773438 -1.050781 -0.609375 -1.1875 C -0.453125 -1.320312 -0.210938 -1.460938 0.109375 -1.609375 C 0.523438 -1.828125 0.859375 -2.035156 1.109375 -2.234375 C 1.359375 -2.441406 1.578125 -2.726562 1.765625 -3.09375 L 5.5 -10.84375 C 6.070312 -12.039062 6.742188 -12.910156 7.515625 -13.453125 C 8.296875 -13.992188 9.328125 -14.265625 10.609375 -14.265625 C 12.035156 -14.265625 13.140625 -13.972656 13.921875 -13.390625 C 14.703125 -12.804688 15.09375 -12 15.09375 -10.96875 C 15.09375 -10.53125 15.023438 -10.082031 14.890625 -9.625 Z M 8.71875 -6.390625 L 9.828125 -10.078125 C 9.878906 -10.242188 9.90625 -10.421875 9.90625 -10.609375 C 9.90625 -10.867188 9.832031 -11.066406 9.6875 -11.203125 C 9.539062 -11.335938 9.335938 -11.40625 9.078125 -11.40625 C 8.734375 -11.40625 8.441406 -11.304688 8.203125 -11.109375 C 7.972656 -10.910156 7.738281 -10.5625 7.5 -10.0625 L 5.78125 -6.390625 Z M 8.71875 -6.390625 "/></g></g></g><g fill="#48c354" fill-opacity="1"><g transform="translate(222.493723, 200.078836)"><g><path d="M 12.03125 -5.421875 C 12.425781 -5.421875 12.722656 -5.335938 12.921875 -5.171875 C 13.128906 -5.015625 13.234375 -4.789062 13.234375 -4.5 C 13.234375 -4.375 13.210938 -4.234375 13.171875 -4.078125 L 12.46875 -1.609375 C 12.289062 -1.015625 12.035156 -0.597656 11.703125 -0.359375 C 11.378906 -0.117188 10.894531 0 10.25 0 L 0.375 0 C 0.0820312 0 -0.140625 -0.046875 -0.296875 -0.140625 C -0.460938 -0.242188 -0.546875 -0.378906 -0.546875 -0.546875 C -0.546875 -0.628906 -0.523438 -0.71875 -0.484375 -0.8125 C -0.441406 -0.925781 -0.367188 -1.019531 -0.265625 -1.09375 C -0.171875 -1.175781 -0.0664062 -1.253906 0.046875 -1.328125 C 0.265625 -1.460938 0.441406 -1.601562 0.578125 -1.75 C 0.722656 -1.894531 0.84375 -2.140625 0.9375 -2.484375 L 3.5 -11.53125 C 3.5625 -11.707031 3.59375 -11.878906 3.59375 -12.046875 C 3.59375 -12.203125 3.566406 -12.332031 3.515625 -12.4375 C 3.460938 -12.539062 3.394531 -12.664062 3.3125 -12.8125 C 3.1875 -12.988281 3.125 -13.132812 3.125 -13.25 C 3.125 -13.289062 3.140625 -13.367188 3.171875 -13.484375 C 3.222656 -13.660156 3.34375 -13.785156 3.53125 -13.859375 C 3.726562 -13.941406 4.019531 -13.984375 4.40625 -13.984375 L 9.34375 -13.984375 C 9.632812 -13.984375 9.859375 -13.9375 10.015625 -13.84375 C 10.179688 -13.757812 10.265625 -13.632812 10.265625 -13.46875 C 10.265625 -13.394531 10.242188 -13.300781 10.203125 -13.1875 C 10.160156 -13.09375 10.097656 -13.003906 10.015625 -12.921875 C 9.941406 -12.847656 9.875 -12.789062 9.8125 -12.75 C 9.75 -12.71875 9.707031 -12.6875 9.6875 -12.65625 C 9.457031 -12.53125 9.269531 -12.390625 9.125 -12.234375 C 8.988281 -12.085938 8.875 -11.851562 8.78125 -11.53125 L 6.0625 -2.015625 L 7.375 -2.015625 C 7.695312 -2.015625 7.972656 -2.070312 8.203125 -2.1875 C 8.429688 -2.300781 8.671875 -2.507812 8.921875 -2.8125 L 10.375 -4.53125 C 10.632812 -4.84375 10.890625 -5.066406 11.140625 -5.203125 C 11.390625 -5.347656 11.6875 -5.421875 12.03125 -5.421875 Z M 12.03125 -5.421875 "/></g></g></g><g fill="#48c354" fill-opacity="1"><g transform="translate(236.164777, 200.078836)"><g><path d="M 16.828125 -13.984375 C 17.585938 -13.984375 17.96875 -13.671875 17.96875 -13.046875 C 17.96875 -12.847656 17.925781 -12.601562 17.84375 -12.3125 L 17.34375 -10.609375 C 17.1875 -10.085938 16.992188 -9.722656 16.765625 -9.515625 C 16.546875 -9.304688 16.226562 -9.203125 15.8125 -9.203125 C 15.457031 -9.203125 15.1875 -9.289062 15 -9.46875 C 14.8125 -9.65625 14.632812 -9.941406 14.46875 -10.328125 L 14.109375 -11.1875 C 13.992188 -11.457031 13.875 -11.640625 13.75 -11.734375 C 13.625 -11.835938 13.429688 -11.890625 13.171875 -11.890625 L 12.6875 -11.890625 L 10.015625 -2.5 C 9.972656 -2.3125 9.953125 -2.148438 9.953125 -2.015625 C 9.953125 -1.847656 9.972656 -1.707031 10.015625 -1.59375 C 10.066406 -1.476562 10.144531 -1.359375 10.25 -1.234375 C 10.375 -1.035156 10.4375 -0.875 10.4375 -0.75 C 10.4375 -0.726562 10.421875 -0.660156 10.390625 -0.546875 C 10.328125 -0.359375 10.191406 -0.222656 9.984375 -0.140625 C 9.785156 -0.0546875 9.492188 -0.015625 9.109375 -0.015625 L 4.171875 -0.015625 C 3.878906 -0.015625 3.648438 -0.0625 3.484375 -0.15625 C 3.328125 -0.257812 3.25 -0.40625 3.25 -0.59375 C 3.25 -0.675781 3.269531 -0.757812 3.3125 -0.84375 C 3.375 -0.96875 3.441406 -1.0625 3.515625 -1.125 C 3.597656 -1.1875 3.710938 -1.265625 3.859375 -1.359375 C 4.066406 -1.484375 4.238281 -1.625 4.375 -1.78125 C 4.519531 -1.9375 4.644531 -2.175781 4.75 -2.5 L 7.390625 -11.890625 L 6.90625 -11.890625 C 6.601562 -11.890625 6.351562 -11.835938 6.15625 -11.734375 C 5.957031 -11.640625 5.742188 -11.457031 5.515625 -11.1875 L 4.828125 -10.328125 C 4.503906 -9.953125 4.191406 -9.671875 3.890625 -9.484375 C 3.585938 -9.296875 3.265625 -9.203125 2.921875 -9.203125 C 2.597656 -9.203125 2.34375 -9.285156 2.15625 -9.453125 C 1.976562 -9.617188 1.890625 -9.847656 1.890625 -10.140625 C 1.890625 -10.285156 1.910156 -10.441406 1.953125 -10.609375 L 2.5 -12.515625 C 2.613281 -12.910156 2.738281 -13.207031 2.875 -13.40625 C 3.019531 -13.613281 3.21875 -13.757812 3.46875 -13.84375 C 3.726562 -13.9375 4.097656 -13.984375 4.578125 -13.984375 Z M 16.828125 -13.984375 "/></g></g></g><g fill="#48c354" fill-opacity="1"><g transform="translate(252.103844, 200.078836)"><g><path d="M 16.765625 -14.0625 C 17.378906 -14.0625 17.878906 -13.863281 18.265625 -13.46875 C 18.660156 -13.070312 18.859375 -12.566406 18.859375 -11.953125 C 18.859375 -11.867188 18.84375 -11.710938 18.8125 -11.484375 C 18.695312 -10.816406 18.429688 -10.320312 18.015625 -10 C 17.609375 -9.675781 17.132812 -9.515625 16.59375 -9.515625 C 16.226562 -9.515625 15.914062 -9.566406 15.65625 -9.671875 C 15.40625 -9.785156 15.171875 -9.976562 14.953125 -10.25 L 11.484375 -5.734375 L 10.515625 -2.484375 C 10.492188 -2.398438 10.484375 -2.285156 10.484375 -2.140625 C 10.484375 -1.941406 10.53125 -1.773438 10.625 -1.640625 C 10.71875 -1.515625 10.859375 -1.375 11.046875 -1.21875 C 11.203125 -1.082031 11.3125 -0.960938 11.375 -0.859375 C 11.445312 -0.765625 11.460938 -0.65625 11.421875 -0.53125 C 11.367188 -0.332031 11.234375 -0.191406 11.015625 -0.109375 C 10.796875 -0.0351562 10.5 0 10.125 0 L 4.828125 0 C 4.460938 0 4.191406 -0.0664062 4.015625 -0.203125 C 3.847656 -0.335938 3.789062 -0.519531 3.84375 -0.75 C 3.875 -0.875 3.925781 -0.972656 4 -1.046875 C 4.070312 -1.128906 4.195312 -1.226562 4.375 -1.34375 C 4.582031 -1.46875 4.753906 -1.609375 4.890625 -1.765625 C 5.035156 -1.929688 5.15625 -2.171875 5.25 -2.484375 L 6.21875 -5.75 L 4.28125 -11.25 C 4.144531 -11.65625 3.976562 -11.96875 3.78125 -12.1875 C 3.59375 -12.40625 3.375 -12.617188 3.125 -12.828125 C 2.96875 -12.941406 2.851562 -13.039062 2.78125 -13.125 C 2.71875 -13.207031 2.6875 -13.304688 2.6875 -13.421875 C 2.6875 -13.585938 2.757812 -13.722656 2.90625 -13.828125 C 3.050781 -13.929688 3.265625 -13.984375 3.546875 -13.984375 L 9.15625 -13.984375 C 9.644531 -13.984375 9.976562 -13.941406 10.15625 -13.859375 C 10.34375 -13.773438 10.441406 -13.628906 10.453125 -13.421875 C 10.453125 -13.296875 10.425781 -13.1875 10.375 -13.09375 C 10.320312 -13 10.238281 -12.890625 10.125 -12.765625 C 10 -12.597656 9.90625 -12.460938 9.84375 -12.359375 C 9.78125 -12.253906 9.75 -12.125 9.75 -11.96875 C 9.75 -11.925781 9.757812 -11.835938 9.78125 -11.703125 L 10.75 -8 L 13.421875 -11.796875 C 13.992188 -12.609375 14.535156 -13.1875 15.046875 -13.53125 C 15.554688 -13.882812 16.128906 -14.0625 16.765625 -14.0625 Z M 16.765625 -14.0625 "/></g></g></g></svg>