<svg xmlns="http://www.w3.org/2000/svg" xmlns:xlink="http://www.w3.org/1999/xlink" width="192" zoomAndPan="magnify" viewBox="0 0 144 143.999998" height="192" preserveAspectRatio="xMidYMid meet" version="1.0"><defs><clipPath id="d38dd3faf9"><path d="M 39.574219 50.992188 L 104.375 50.992188 L 104.375 69.886719 L 39.574219 69.886719 Z M 39.574219 50.992188 " clip-rule="nonzero"/></clipPath></defs><g clip-path="url(#d38dd3faf9)"><path fill="#48c354" d="M 59.960938 52.617188 L 70.785156 63.441406 L 101.769531 63.441406 L 104.46875 66.648438 L 101.769531 69.859375 L 98.703125 69.859375 L 97.84375 68.144531 L 95.84375 68.144531 L 94.988281 69.859375 L 93.066406 69.859375 L 92.207031 68.144531 L 90.234375 68.144531 L 89.375 69.859375 L 87.464844 69.859375 L 86.605469 68.144531 L 84.605469 68.144531 L 83.75 69.859375 L 70.796875 69.859375 L 58.402344 57.464844 L 45.945312 69.859375 L 39.523438 69.859375 L 46.214844 63.167969 L 46.214844 56.683594 L 50.699219 56.683594 L 50.699219 58.6875 C 53.257812 56.128906 55.828125 53.554688 58.390625 50.992188 Z M 72.003906 64.660156 L 72.433594 65.089844 L 101.558594 65.089844 L 101.558594 64.660156 Z M 72.003906 64.660156 " fill-opacity="1" fill-rule="nonzero"/></g><path fill="#48c354" d="M 55.621094 64.296875 L 57.972656 64.296875 L 57.972656 66.714844 L 55.621094 66.714844 Z M 58.753906 64.296875 L 61.105469 64.296875 L 61.105469 66.714844 L 58.753906 66.714844 Z M 61.105469 67.429688 L 61.105469 69.847656 L 58.753906 69.847656 L 58.753906 67.429688 Z M 57.972656 69.859375 L 55.621094 69.859375 L 55.621094 67.441406 L 57.972656 67.441406 Z M 57.972656 69.859375 " fill-opacity="1" fill-rule="nonzero"/><path fill="#48c354" d="M 40.964844 71.414062 C 41.265625 71.414062 41.542969 71.449219 41.800781 71.519531 C 42.054688 71.59375 42.3125 71.707031 42.574219 71.863281 L 42.761719 71.710938 C 42.890625 71.609375 42.996094 71.539062 43.078125 71.503906 C 43.164062 71.464844 43.257812 71.441406 43.367188 71.441406 C 43.492188 71.441406 43.597656 71.472656 43.671875 71.527344 C 43.746094 71.582031 43.785156 71.664062 43.785156 71.773438 C 43.785156 71.816406 43.777344 71.863281 43.761719 71.910156 L 43.425781 73.027344 C 43.386719 73.15625 43.339844 73.246094 43.28125 73.300781 C 43.226562 73.355469 43.140625 73.378906 43.03125 73.378906 C 42.910156 73.378906 42.804688 73.34375 42.71875 73.273438 C 42.628906 73.199219 42.492188 73.046875 42.304688 72.824219 C 42.117188 72.605469 41.945312 72.453125 41.789062 72.367188 C 41.636719 72.277344 41.480469 72.234375 41.320312 72.234375 C 41.199219 72.234375 41.101562 72.273438 41.019531 72.355469 C 40.941406 72.429688 40.902344 72.523438 40.902344 72.636719 C 40.902344 72.765625 40.964844 72.886719 41.09375 72.996094 C 41.21875 73.105469 41.421875 73.242188 41.699219 73.410156 C 41.976562 73.578125 42.207031 73.730469 42.386719 73.867188 C 42.570312 74 42.726562 74.164062 42.855469 74.363281 C 42.988281 74.5625 43.054688 74.789062 43.054688 75.046875 C 43.054688 75.214844 43.027344 75.382812 42.96875 75.546875 C 42.839844 75.976562 42.59375 76.308594 42.21875 76.53125 C 41.851562 76.75 41.417969 76.859375 40.925781 76.859375 C 40.550781 76.859375 40.242188 76.816406 39.988281 76.734375 C 39.738281 76.648438 39.476562 76.5 39.214844 76.296875 L 38.925781 76.542969 C 38.789062 76.65625 38.675781 76.730469 38.589844 76.769531 C 38.507812 76.8125 38.410156 76.832031 38.300781 76.832031 C 38.179688 76.832031 38.082031 76.800781 38.007812 76.742188 C 37.9375 76.679688 37.902344 76.601562 37.902344 76.5 C 37.902344 76.445312 37.910156 76.390625 37.929688 76.332031 L 38.328125 75.125 C 38.371094 74.988281 38.429688 74.890625 38.507812 74.832031 C 38.582031 74.773438 38.675781 74.742188 38.792969 74.742188 C 38.917969 74.742188 39.03125 74.789062 39.128906 74.875 C 39.230469 74.957031 39.359375 75.113281 39.519531 75.335938 C 39.691406 75.585938 39.851562 75.757812 40 75.859375 C 40.148438 75.953125 40.324219 76.003906 40.527344 76.003906 C 40.671875 76.003906 40.78125 75.980469 40.859375 75.9375 C 40.9375 75.886719 40.992188 75.8125 41.027344 75.707031 C 41.039062 75.679688 41.042969 75.640625 41.042969 75.589844 C 41.042969 75.460938 40.980469 75.34375 40.859375 75.234375 C 40.734375 75.125 40.542969 74.996094 40.289062 74.84375 C 40.011719 74.679688 39.789062 74.53125 39.617188 74.398438 C 39.445312 74.269531 39.292969 74.101562 39.167969 73.902344 C 39.042969 73.703125 38.980469 73.46875 38.980469 73.199219 C 38.980469 73.011719 39.011719 72.828125 39.070312 72.640625 C 39.179688 72.273438 39.414062 71.980469 39.761719 71.753906 C 40.113281 71.527344 40.511719 71.414062 40.964844 71.414062 Z M 40.964844 71.414062 " fill-opacity="1" fill-rule="nonzero"/><path fill="#48c354" d="M 48.125 74.75 C 48.277344 74.75 48.390625 74.78125 48.464844 74.84375 C 48.546875 74.902344 48.585938 74.992188 48.585938 75.101562 C 48.585938 75.148438 48.578125 75.203125 48.5625 75.265625 L 48.292969 76.210938 C 48.222656 76.441406 48.125 76.601562 48 76.691406 C 47.875 76.785156 47.6875 76.832031 47.441406 76.832031 L 43.648438 76.832031 C 43.535156 76.832031 43.449219 76.8125 43.390625 76.777344 C 43.328125 76.738281 43.292969 76.683594 43.292969 76.621094 C 43.292969 76.589844 43.304688 76.554688 43.320312 76.519531 C 43.335938 76.476562 43.363281 76.4375 43.402344 76.410156 C 43.4375 76.378906 43.480469 76.347656 43.523438 76.320312 C 43.605469 76.269531 43.675781 76.214844 43.726562 76.160156 C 43.78125 76.101562 43.828125 76.007812 43.863281 75.875 L 44.847656 72.402344 C 44.871094 72.335938 44.882812 72.269531 44.882812 72.203125 C 44.882812 72.144531 44.875 72.09375 44.855469 72.054688 C 44.832031 72.015625 44.808594 71.96875 44.777344 71.910156 C 44.730469 71.84375 44.703125 71.789062 44.703125 71.742188 C 44.703125 71.726562 44.710938 71.699219 44.722656 71.652344 C 44.742188 71.585938 44.789062 71.535156 44.859375 71.507812 C 44.9375 71.476562 45.046875 71.460938 45.195312 71.460938 L 47.09375 71.460938 C 47.203125 71.460938 47.289062 71.476562 47.351562 71.515625 C 47.414062 71.546875 47.445312 71.59375 47.445312 71.660156 C 47.445312 71.6875 47.4375 71.722656 47.421875 71.765625 C 47.40625 71.800781 47.382812 71.835938 47.351562 71.867188 C 47.320312 71.898438 47.296875 71.917969 47.273438 71.933594 C 47.25 71.945312 47.230469 71.957031 47.226562 71.96875 C 47.136719 72.019531 47.0625 72.074219 47.007812 72.132812 C 46.957031 72.1875 46.914062 72.277344 46.875 72.402344 L 45.832031 76.054688 L 46.335938 76.054688 C 46.460938 76.054688 46.566406 76.035156 46.65625 75.992188 C 46.742188 75.945312 46.835938 75.867188 46.929688 75.75 L 47.488281 75.089844 C 47.585938 74.96875 47.6875 74.886719 47.78125 74.832031 C 47.878906 74.777344 47.992188 74.75 48.125 74.75 Z M 48.125 74.75 " fill-opacity="1" fill-rule="nonzero"/><path fill="#48c354" d="M 53.679688 75.875 C 53.660156 75.949219 53.648438 76.019531 53.648438 76.085938 C 53.648438 76.144531 53.65625 76.199219 53.675781 76.234375 C 53.6875 76.277344 53.707031 76.308594 53.722656 76.332031 C 53.742188 76.355469 53.753906 76.375 53.765625 76.386719 C 53.816406 76.441406 53.84375 76.496094 53.84375 76.546875 C 53.84375 76.558594 53.835938 76.585938 53.824219 76.625 C 53.804688 76.703125 53.757812 76.757812 53.6875 76.789062 C 53.613281 76.816406 53.5 76.832031 53.351562 76.832031 L 51.441406 76.832031 C 51.324219 76.832031 51.234375 76.8125 51.171875 76.777344 C 51.113281 76.738281 51.082031 76.683594 51.082031 76.621094 C 51.082031 76.589844 51.089844 76.554688 51.105469 76.519531 C 51.121094 76.476562 51.144531 76.441406 51.171875 76.417969 C 51.203125 76.390625 51.246094 76.367188 51.304688 76.332031 C 51.386719 76.285156 51.457031 76.230469 51.507812 76.171875 C 51.5625 76.109375 51.609375 76.011719 51.644531 75.875 L 51.855469 75.1875 L 50.601562 75.1875 L 50.378906 75.640625 C 50.292969 75.84375 50.25 76 50.25 76.109375 C 50.25 76.179688 50.257812 76.234375 50.277344 76.273438 C 50.296875 76.3125 50.328125 76.351562 50.375 76.390625 C 50.414062 76.4375 50.441406 76.476562 50.453125 76.507812 C 50.464844 76.535156 50.464844 76.574219 50.457031 76.621094 C 50.433594 76.703125 50.386719 76.757812 50.320312 76.789062 C 50.253906 76.816406 50.148438 76.832031 50.003906 76.832031 L 48.800781 76.832031 C 48.679688 76.832031 48.585938 76.808594 48.519531 76.765625 C 48.457031 76.714844 48.425781 76.65625 48.425781 76.578125 C 48.425781 76.496094 48.457031 76.425781 48.519531 76.375 C 48.582031 76.324219 48.671875 76.269531 48.796875 76.210938 C 48.957031 76.128906 49.085938 76.046875 49.179688 75.972656 C 49.277344 75.894531 49.359375 75.785156 49.433594 75.640625 L 50.867188 72.667969 C 51.085938 72.207031 51.34375 71.871094 51.640625 71.664062 C 51.941406 71.457031 52.335938 71.351562 52.828125 71.351562 C 53.375 71.351562 53.800781 71.464844 54.101562 71.6875 C 54.398438 71.914062 54.550781 72.222656 54.550781 72.617188 C 54.550781 72.785156 54.523438 72.957031 54.472656 73.132812 Z M 52.101562 74.375 L 52.527344 72.960938 C 52.546875 72.898438 52.558594 72.828125 52.558594 72.757812 C 52.558594 72.65625 52.53125 72.582031 52.472656 72.527344 C 52.417969 72.476562 52.339844 72.449219 52.242188 72.449219 C 52.109375 72.449219 51.996094 72.488281 51.90625 72.5625 C 51.816406 72.640625 51.726562 72.773438 51.632812 72.964844 L 50.972656 74.375 Z M 52.101562 74.375 " fill-opacity="1" fill-rule="nonzero"/><path fill="#48c354" d="M 57.402344 71.414062 C 57.699219 71.414062 57.976562 71.449219 58.234375 71.519531 C 58.488281 71.59375 58.746094 71.707031 59.007812 71.863281 L 59.195312 71.710938 C 59.328125 71.609375 59.433594 71.539062 59.511719 71.503906 C 59.597656 71.464844 59.691406 71.441406 59.800781 71.441406 C 59.929688 71.441406 60.03125 71.472656 60.105469 71.527344 C 60.183594 71.582031 60.222656 71.664062 60.222656 71.773438 C 60.222656 71.816406 60.210938 71.863281 60.195312 71.910156 L 59.859375 73.027344 C 59.820312 73.15625 59.773438 73.246094 59.71875 73.300781 C 59.660156 73.355469 59.574219 73.378906 59.464844 73.378906 C 59.34375 73.378906 59.238281 73.34375 59.152344 73.273438 C 59.066406 73.199219 58.925781 73.046875 58.738281 72.824219 C 58.550781 72.605469 58.378906 72.453125 58.222656 72.367188 C 58.070312 72.277344 57.914062 72.234375 57.753906 72.234375 C 57.636719 72.234375 57.535156 72.273438 57.453125 72.355469 C 57.375 72.429688 57.335938 72.523438 57.335938 72.636719 C 57.335938 72.765625 57.398438 72.886719 57.527344 72.996094 C 57.65625 73.105469 57.855469 73.242188 58.132812 73.410156 C 58.410156 73.578125 58.644531 73.730469 58.824219 73.867188 C 59.007812 74 59.160156 74.164062 59.289062 74.363281 C 59.421875 74.5625 59.488281 74.789062 59.488281 75.046875 C 59.488281 75.214844 59.460938 75.382812 59.40625 75.546875 C 59.277344 75.976562 59.027344 76.308594 58.65625 76.53125 C 58.285156 76.75 57.855469 76.859375 57.359375 76.859375 C 56.988281 76.859375 56.675781 76.816406 56.421875 76.734375 C 56.171875 76.648438 55.914062 76.5 55.648438 76.296875 L 55.359375 76.542969 C 55.222656 76.65625 55.113281 76.730469 55.023438 76.769531 C 54.941406 76.8125 54.84375 76.832031 54.738281 76.832031 C 54.613281 76.832031 54.515625 76.800781 54.441406 76.742188 C 54.371094 76.679688 54.335938 76.601562 54.335938 76.5 C 54.335938 76.445312 54.34375 76.390625 54.363281 76.332031 L 54.761719 75.125 C 54.804688 74.988281 54.863281 74.890625 54.941406 74.832031 C 55.015625 74.773438 55.113281 74.742188 55.230469 74.742188 C 55.351562 74.742188 55.464844 74.789062 55.566406 74.875 C 55.664062 74.957031 55.792969 75.113281 55.953125 75.335938 C 56.125 75.585938 56.285156 75.757812 56.433594 75.859375 C 56.582031 75.953125 56.757812 76.003906 56.964844 76.003906 C 57.105469 76.003906 57.214844 75.980469 57.292969 75.9375 C 57.371094 75.886719 57.429688 75.8125 57.460938 75.707031 C 57.472656 75.679688 57.480469 75.640625 57.480469 75.589844 C 57.480469 75.460938 57.414062 75.34375 57.292969 75.234375 C 57.167969 75.125 56.976562 74.996094 56.722656 74.84375 C 56.445312 74.679688 56.222656 74.53125 56.050781 74.398438 C 55.878906 74.269531 55.726562 74.101562 55.601562 73.902344 C 55.476562 73.703125 55.414062 73.46875 55.414062 73.199219 C 55.414062 73.011719 55.445312 72.828125 55.503906 72.640625 C 55.617188 72.273438 55.847656 71.980469 56.195312 71.753906 C 56.546875 71.527344 56.949219 71.414062 57.402344 71.414062 Z M 57.402344 71.414062 " fill-opacity="1" fill-rule="nonzero"/><path fill="#48c354" d="M 66.988281 71.460938 C 67.101562 71.460938 67.1875 71.480469 67.246094 71.519531 C 67.308594 71.554688 67.34375 71.601562 67.34375 71.660156 C 67.34375 71.6875 67.335938 71.722656 67.320312 71.765625 C 67.300781 71.800781 67.277344 71.835938 67.246094 71.867188 C 67.21875 71.898438 67.191406 71.917969 67.167969 71.933594 C 67.144531 71.945312 67.128906 71.957031 67.113281 71.96875 C 67.03125 72.019531 66.960938 72.074219 66.90625 72.132812 C 66.851562 72.1875 66.804688 72.277344 66.765625 72.402344 L 65.777344 75.875 C 65.757812 75.949219 65.746094 76.015625 65.746094 76.082031 C 65.746094 76.144531 65.753906 76.199219 65.769531 76.234375 C 65.789062 76.273438 65.820312 76.320312 65.855469 76.378906 C 65.863281 76.386719 65.878906 76.402344 65.902344 76.441406 C 65.925781 76.476562 65.9375 76.511719 65.9375 76.546875 C 65.9375 76.558594 65.933594 76.585938 65.921875 76.625 C 65.898438 76.703125 65.847656 76.757812 65.769531 76.789062 C 65.695312 76.816406 65.582031 76.832031 65.429688 76.832031 L 63.53125 76.832031 C 63.421875 76.832031 63.332031 76.8125 63.269531 76.777344 C 63.210938 76.738281 63.179688 76.683594 63.179688 76.621094 C 63.179688 76.589844 63.1875 76.554688 63.203125 76.519531 C 63.226562 76.476562 63.257812 76.4375 63.292969 76.410156 C 63.332031 76.378906 63.371094 76.351562 63.40625 76.332031 C 63.492188 76.285156 63.558594 76.230469 63.609375 76.171875 C 63.667969 76.105469 63.714844 76.007812 63.753906 75.875 L 64.140625 74.53125 L 62.710938 74.53125 L 62.328125 75.875 C 62.304688 75.949219 62.292969 76.015625 62.292969 76.082031 C 62.292969 76.144531 62.300781 76.199219 62.320312 76.234375 C 62.339844 76.273438 62.367188 76.320312 62.40625 76.378906 C 62.414062 76.386719 62.429688 76.402344 62.453125 76.441406 C 62.476562 76.476562 62.488281 76.511719 62.488281 76.546875 C 62.488281 76.558594 62.484375 76.585938 62.472656 76.625 C 62.441406 76.703125 62.390625 76.757812 62.316406 76.789062 C 62.242188 76.816406 62.128906 76.832031 61.980469 76.832031 L 60.082031 76.832031 C 59.96875 76.832031 59.886719 76.8125 59.824219 76.777344 C 59.761719 76.738281 59.730469 76.683594 59.730469 76.621094 C 59.730469 76.589844 59.738281 76.554688 59.753906 76.519531 C 59.773438 76.476562 59.804688 76.4375 59.84375 76.410156 C 59.878906 76.378906 59.917969 76.351562 59.957031 76.332031 C 60.042969 76.285156 60.109375 76.230469 60.160156 76.171875 C 60.214844 76.105469 60.261719 76.007812 60.300781 75.875 L 61.296875 72.402344 C 61.316406 72.335938 61.324219 72.269531 61.324219 72.203125 C 61.324219 72.144531 61.316406 72.09375 61.296875 72.054688 C 61.277344 72.015625 61.253906 71.96875 61.222656 71.910156 C 61.199219 71.882812 61.179688 71.855469 61.164062 71.828125 C 61.148438 71.800781 61.140625 71.769531 61.140625 71.734375 C 61.140625 71.722656 61.144531 71.699219 61.15625 71.652344 C 61.175781 71.585938 61.226562 71.535156 61.300781 71.507812 C 61.375 71.476562 61.488281 71.460938 61.644531 71.460938 L 63.53125 71.460938 C 63.648438 71.460938 63.738281 71.480469 63.796875 71.519531 C 63.859375 71.554688 63.894531 71.601562 63.894531 71.660156 C 63.894531 71.6875 63.882812 71.722656 63.867188 71.765625 C 63.847656 71.800781 63.824219 71.835938 63.796875 71.867188 C 63.769531 71.898438 63.742188 71.917969 63.71875 71.933594 C 63.695312 71.945312 63.675781 71.957031 63.664062 71.96875 C 63.578125 72.019531 63.507812 72.074219 63.457031 72.132812 C 63.402344 72.1875 63.355469 72.277344 63.316406 72.402344 L 62.9375 73.726562 L 64.367188 73.726562 L 64.746094 72.402344 C 64.765625 72.335938 64.773438 72.269531 64.773438 72.203125 C 64.773438 72.144531 64.765625 72.09375 64.746094 72.054688 C 64.730469 72.015625 64.703125 71.96875 64.671875 71.910156 C 64.652344 71.882812 64.632812 71.855469 64.613281 71.828125 C 64.597656 71.800781 64.589844 71.769531 64.589844 71.734375 C 64.589844 71.722656 64.59375 71.699219 64.605469 71.652344 C 64.632812 71.585938 64.679688 71.535156 64.75 71.507812 C 64.824219 71.476562 64.941406 71.460938 65.09375 71.460938 Z M 66.988281 71.460938 " fill-opacity="1" fill-rule="nonzero"/><path fill="#48c354" d="M 74.4375 73.097656 C 74.351562 73.410156 74.1875 73.65625 73.953125 73.832031 C 73.714844 74.003906 73.417969 74.109375 73.058594 74.152344 C 73.320312 74.175781 73.511719 74.25 73.640625 74.382812 C 73.769531 74.511719 73.832031 74.679688 73.832031 74.886719 C 73.832031 74.96875 73.816406 75.066406 73.792969 75.1875 L 73.707031 75.582031 C 73.695312 75.636719 73.6875 75.671875 73.6875 75.691406 C 73.6875 75.761719 73.703125 75.816406 73.738281 75.851562 C 73.769531 75.886719 73.816406 75.898438 73.875 75.898438 C 73.984375 75.898438 74.066406 75.917969 74.117188 75.953125 C 74.167969 75.988281 74.183594 76.042969 74.167969 76.128906 C 74.148438 76.253906 74.085938 76.375 73.976562 76.496094 C 73.871094 76.609375 73.714844 76.707031 73.519531 76.789062 C 73.324219 76.863281 73.085938 76.902344 72.808594 76.902344 C 72.453125 76.902344 72.171875 76.824219 71.960938 76.667969 C 71.753906 76.507812 71.648438 76.28125 71.648438 75.984375 C 71.648438 75.875 71.664062 75.75 71.699219 75.617188 L 71.824219 75.101562 C 71.847656 75.035156 71.859375 74.960938 71.859375 74.886719 C 71.859375 74.761719 71.816406 74.675781 71.734375 74.621094 C 71.648438 74.566406 71.515625 74.539062 71.332031 74.539062 L 71.023438 74.539062 L 70.652344 75.875 C 70.644531 75.910156 70.640625 75.953125 70.640625 76.003906 C 70.640625 76.074219 70.660156 76.140625 70.695312 76.195312 C 70.734375 76.246094 70.785156 76.300781 70.851562 76.363281 C 70.898438 76.398438 70.933594 76.433594 70.960938 76.46875 C 70.984375 76.507812 71 76.542969 71 76.578125 C 71 76.671875 70.957031 76.738281 70.871094 76.777344 C 70.785156 76.8125 70.660156 76.832031 70.496094 76.832031 L 68.46875 76.832031 C 68.328125 76.832031 68.226562 76.804688 68.15625 76.753906 C 68.085938 76.703125 68.0625 76.628906 68.085938 76.542969 C 68.09375 76.496094 68.113281 76.457031 68.144531 76.429688 C 68.171875 76.398438 68.21875 76.359375 68.277344 76.320312 C 68.367188 76.269531 68.441406 76.210938 68.492188 76.152344 C 68.546875 76.09375 68.59375 76 68.625 75.875 L 69.609375 72.402344 C 69.628906 72.335938 69.640625 72.269531 69.640625 72.203125 C 69.640625 72.144531 69.628906 72.09375 69.609375 72.054688 C 69.59375 72.015625 69.570312 71.96875 69.539062 71.910156 C 69.488281 71.84375 69.464844 71.789062 69.464844 71.742188 C 69.464844 71.726562 69.46875 71.699219 69.476562 71.652344 C 69.5 71.585938 69.550781 71.535156 69.621094 71.507812 C 69.691406 71.476562 69.804688 71.460938 69.957031 71.460938 L 72.65625 71.460938 C 73.03125 71.460938 73.351562 71.515625 73.628906 71.628906 C 73.90625 71.742188 74.117188 71.894531 74.265625 72.089844 C 74.414062 72.285156 74.488281 72.507812 74.488281 72.757812 C 74.488281 72.875 74.472656 72.988281 74.4375 73.097656 Z M 72.375 73.015625 C 72.398438 72.890625 72.410156 72.796875 72.410156 72.730469 C 72.410156 72.449219 72.257812 72.304688 71.949219 72.304688 L 71.605469 72.304688 L 71.253906 73.734375 L 71.589844 73.734375 C 71.800781 73.734375 71.96875 73.683594 72.085938 73.585938 C 72.207031 73.480469 72.304688 73.289062 72.375 73.015625 Z M 72.375 73.015625 " fill-opacity="1" fill-rule="nonzero"/><path fill="#48c354" d="M 79.664062 71.460938 C 79.859375 71.460938 80.015625 71.503906 80.121094 71.59375 C 80.234375 71.675781 80.289062 71.792969 80.289062 71.945312 C 80.289062 72.019531 80.28125 72.089844 80.261719 72.164062 L 80.050781 72.914062 C 80.015625 73.054688 79.957031 73.15625 79.882812 73.210938 C 79.808594 73.269531 79.707031 73.296875 79.574219 73.296875 C 79.445312 73.296875 79.34375 73.269531 79.269531 73.210938 C 79.199219 73.15625 79.144531 73.066406 79.109375 72.9375 L 78.976562 72.472656 C 78.953125 72.378906 78.917969 72.316406 78.878906 72.28125 C 78.84375 72.25 78.773438 72.234375 78.664062 72.234375 L 77.816406 72.234375 L 77.414062 73.667969 L 77.769531 73.667969 C 77.804688 73.667969 77.855469 73.644531 77.921875 73.589844 L 78.195312 73.34375 C 78.277344 73.277344 78.347656 73.226562 78.40625 73.195312 C 78.464844 73.164062 78.539062 73.144531 78.621094 73.144531 C 78.71875 73.144531 78.796875 73.171875 78.855469 73.222656 C 78.917969 73.273438 78.953125 73.335938 78.953125 73.417969 C 78.953125 73.441406 78.949219 73.476562 78.941406 73.519531 L 78.609375 74.632812 C 78.578125 74.753906 78.519531 74.84375 78.441406 74.898438 C 78.367188 74.957031 78.28125 74.980469 78.191406 74.980469 C 78.035156 74.980469 77.921875 74.902344 77.847656 74.75 L 77.710938 74.464844 C 77.675781 74.386719 77.617188 74.347656 77.535156 74.347656 L 77.21875 74.347656 L 76.742188 76.054688 L 77.453125 76.054688 C 77.554688 76.054688 77.644531 76.035156 77.722656 75.996094 C 77.800781 75.957031 77.886719 75.886719 77.980469 75.78125 L 78.460938 75.253906 C 78.546875 75.160156 78.628906 75.09375 78.707031 75.054688 C 78.785156 75.015625 78.882812 74.996094 78.992188 74.996094 C 79.113281 74.996094 79.210938 75.019531 79.28125 75.074219 C 79.355469 75.125 79.394531 75.203125 79.394531 75.3125 C 79.394531 75.355469 79.386719 75.410156 79.371094 75.46875 L 79.136719 76.285156 C 79.078125 76.488281 78.992188 76.628906 78.878906 76.710938 C 78.765625 76.792969 78.605469 76.832031 78.386719 76.832031 L 74.542969 76.832031 C 74.429688 76.832031 74.34375 76.8125 74.285156 76.777344 C 74.222656 76.738281 74.1875 76.683594 74.1875 76.621094 C 74.1875 76.589844 74.195312 76.554688 74.210938 76.519531 C 74.234375 76.457031 74.269531 76.414062 74.320312 76.378906 C 74.367188 76.347656 74.394531 76.328125 74.402344 76.320312 C 74.492188 76.269531 74.5625 76.214844 74.613281 76.160156 C 74.667969 76.101562 74.714844 76.007812 74.75 75.875 L 75.742188 72.402344 C 75.765625 72.335938 75.777344 72.269531 75.777344 72.210938 C 75.777344 72.148438 75.765625 72.09375 75.746094 72.046875 C 75.726562 72.003906 75.699219 71.957031 75.664062 71.910156 C 75.617188 71.84375 75.59375 71.789062 75.59375 71.742188 C 75.59375 71.726562 75.597656 71.699219 75.609375 71.652344 C 75.628906 71.585938 75.675781 71.535156 75.753906 71.507812 C 75.828125 71.476562 75.941406 71.460938 76.082031 71.460938 Z M 79.664062 71.460938 " fill-opacity="1" fill-rule="nonzero"/><path fill="#48c354" d="M 84.734375 75.875 C 84.714844 75.949219 84.703125 76.019531 84.703125 76.085938 C 84.703125 76.144531 84.710938 76.199219 84.730469 76.234375 C 84.742188 76.277344 84.761719 76.308594 84.777344 76.332031 C 84.796875 76.355469 84.808594 76.375 84.820312 76.386719 C 84.871094 76.441406 84.898438 76.496094 84.898438 76.546875 C 84.898438 76.558594 84.890625 76.585938 84.878906 76.625 C 84.859375 76.703125 84.8125 76.757812 84.742188 76.789062 C 84.667969 76.816406 84.554688 76.832031 84.40625 76.832031 L 82.496094 76.832031 C 82.378906 76.832031 82.289062 76.8125 82.226562 76.777344 C 82.167969 76.738281 82.136719 76.683594 82.136719 76.621094 C 82.136719 76.589844 82.144531 76.554688 82.160156 76.519531 C 82.175781 76.476562 82.199219 76.441406 82.226562 76.417969 C 82.257812 76.390625 82.300781 76.367188 82.359375 76.332031 C 82.441406 76.285156 82.511719 76.230469 82.5625 76.171875 C 82.617188 76.109375 82.664062 76.011719 82.699219 75.875 L 82.910156 75.1875 L 81.65625 75.1875 L 81.433594 75.640625 C 81.347656 75.84375 81.304688 76 81.304688 76.109375 C 81.304688 76.179688 81.3125 76.234375 81.332031 76.273438 C 81.351562 76.3125 81.382812 76.351562 81.429688 76.390625 C 81.46875 76.4375 81.496094 76.476562 81.507812 76.507812 C 81.519531 76.535156 81.519531 76.574219 81.511719 76.621094 C 81.488281 76.703125 81.441406 76.757812 81.375 76.789062 C 81.308594 76.816406 81.203125 76.832031 81.058594 76.832031 L 79.855469 76.832031 C 79.734375 76.832031 79.640625 76.808594 79.574219 76.765625 C 79.511719 76.714844 79.480469 76.65625 79.480469 76.578125 C 79.480469 76.496094 79.511719 76.425781 79.574219 76.375 C 79.636719 76.324219 79.726562 76.269531 79.851562 76.210938 C 80.011719 76.128906 80.140625 76.046875 80.234375 75.972656 C 80.332031 75.894531 80.414062 75.785156 80.488281 75.640625 L 81.921875 72.667969 C 82.140625 72.207031 82.398438 71.871094 82.695312 71.664062 C 82.996094 71.457031 83.390625 71.351562 83.882812 71.351562 C 84.429688 71.351562 84.855469 71.464844 85.15625 71.6875 C 85.453125 71.914062 85.605469 72.222656 85.605469 72.617188 C 85.605469 72.785156 85.578125 72.957031 85.527344 73.132812 Z M 83.15625 74.375 L 83.582031 72.960938 C 83.601562 72.898438 83.613281 72.828125 83.613281 72.757812 C 83.613281 72.65625 83.585938 72.582031 83.527344 72.527344 C 83.472656 72.476562 83.394531 72.449219 83.292969 72.449219 C 83.164062 72.449219 83.050781 72.488281 82.957031 72.5625 C 82.871094 72.640625 82.78125 72.773438 82.6875 72.964844 L 82.027344 74.375 Z M 83.15625 74.375 " fill-opacity="1" fill-rule="nonzero"/><path fill="#48c354" d="M 90.058594 74.75 C 90.210938 74.75 90.324219 74.78125 90.398438 74.84375 C 90.480469 74.902344 90.519531 74.992188 90.519531 75.101562 C 90.519531 75.148438 90.511719 75.203125 90.496094 75.265625 L 90.226562 76.210938 C 90.15625 76.441406 90.058594 76.601562 89.929688 76.691406 C 89.808594 76.785156 89.621094 76.832031 89.375 76.832031 L 85.582031 76.832031 C 85.46875 76.832031 85.382812 76.8125 85.324219 76.777344 C 85.261719 76.738281 85.226562 76.683594 85.226562 76.621094 C 85.226562 76.589844 85.238281 76.554688 85.25 76.519531 C 85.269531 76.476562 85.296875 76.4375 85.335938 76.410156 C 85.371094 76.378906 85.410156 76.347656 85.457031 76.320312 C 85.539062 76.269531 85.605469 76.214844 85.660156 76.160156 C 85.714844 76.101562 85.761719 76.007812 85.796875 75.875 L 86.78125 72.402344 C 86.804688 72.335938 86.816406 72.269531 86.816406 72.203125 C 86.816406 72.144531 86.808594 72.09375 86.789062 72.054688 C 86.765625 72.015625 86.742188 71.96875 86.710938 71.910156 C 86.660156 71.84375 86.636719 71.789062 86.636719 71.742188 C 86.636719 71.726562 86.644531 71.699219 86.65625 71.652344 C 86.675781 71.585938 86.722656 71.535156 86.792969 71.507812 C 86.867188 71.476562 86.980469 71.460938 87.128906 71.460938 L 89.027344 71.460938 C 89.136719 71.460938 89.222656 71.476562 89.285156 71.515625 C 89.347656 71.546875 89.378906 71.59375 89.378906 71.660156 C 89.378906 71.6875 89.371094 71.722656 89.355469 71.765625 C 89.339844 71.800781 89.316406 71.835938 89.285156 71.867188 C 89.253906 71.898438 89.230469 71.917969 89.207031 71.933594 C 89.179688 71.945312 89.164062 71.957031 89.15625 71.96875 C 89.070312 72.019531 88.996094 72.074219 88.941406 72.132812 C 88.890625 72.1875 88.84375 72.277344 88.808594 72.402344 L 87.765625 76.054688 L 88.269531 76.054688 C 88.394531 76.054688 88.5 76.035156 88.585938 75.992188 C 88.675781 75.945312 88.769531 75.867188 88.863281 75.75 L 89.421875 75.089844 C 89.519531 74.96875 89.621094 74.886719 89.714844 74.832031 C 89.8125 74.777344 89.925781 74.75 90.058594 74.75 Z M 90.058594 74.75 " fill-opacity="1" fill-rule="nonzero"/><path fill="#48c354" d="M 97.148438 71.460938 C 97.441406 71.460938 97.585938 71.582031 97.585938 71.820312 C 97.585938 71.898438 97.570312 71.992188 97.539062 72.101562 L 97.347656 72.757812 C 97.289062 72.957031 97.210938 73.097656 97.125 73.175781 C 97.042969 73.257812 96.917969 73.296875 96.757812 73.296875 C 96.621094 73.296875 96.519531 73.261719 96.449219 73.195312 C 96.375 73.121094 96.304688 73.011719 96.242188 72.863281 L 96.105469 72.535156 C 96.058594 72.429688 96.015625 72.359375 95.96875 72.324219 C 95.917969 72.285156 95.84375 72.265625 95.746094 72.265625 L 95.558594 72.265625 L 94.535156 75.871094 C 94.515625 75.941406 94.507812 76.003906 94.507812 76.054688 C 94.507812 76.121094 94.515625 76.175781 94.535156 76.21875 C 94.554688 76.261719 94.582031 76.308594 94.625 76.355469 C 94.671875 76.433594 94.695312 76.496094 94.695312 76.542969 C 94.695312 76.550781 94.6875 76.578125 94.675781 76.621094 C 94.652344 76.691406 94.601562 76.746094 94.519531 76.777344 C 94.445312 76.808594 94.332031 76.824219 94.183594 76.824219 L 92.289062 76.824219 C 92.175781 76.824219 92.089844 76.804688 92.023438 76.769531 C 91.964844 76.730469 91.933594 76.675781 91.933594 76.601562 C 91.933594 76.570312 91.941406 76.539062 91.960938 76.507812 C 91.984375 76.457031 92.007812 76.421875 92.039062 76.398438 C 92.070312 76.375 92.113281 76.34375 92.167969 76.308594 C 92.25 76.261719 92.316406 76.207031 92.367188 76.144531 C 92.421875 76.085938 92.472656 75.996094 92.511719 75.871094 L 93.523438 72.265625 L 93.339844 72.265625 C 93.222656 72.265625 93.125 72.285156 93.050781 72.324219 C 92.976562 72.359375 92.890625 72.429688 92.804688 72.535156 L 92.542969 72.863281 C 92.417969 73.007812 92.296875 73.117188 92.179688 73.1875 C 92.0625 73.261719 91.941406 73.296875 91.808594 73.296875 C 91.683594 73.296875 91.585938 73.265625 91.515625 73.199219 C 91.445312 73.136719 91.414062 73.046875 91.414062 72.9375 C 91.414062 72.878906 91.421875 72.820312 91.4375 72.757812 L 91.648438 72.023438 C 91.691406 71.871094 91.738281 71.757812 91.792969 71.683594 C 91.847656 71.601562 91.921875 71.546875 92.019531 71.515625 C 92.117188 71.476562 92.261719 71.460938 92.445312 71.460938 Z M 97.148438 71.460938 " fill-opacity="1" fill-rule="nonzero"/><path fill="#48c354" d="M 103.246094 71.429688 C 103.480469 71.429688 103.671875 71.507812 103.820312 71.660156 C 103.972656 71.8125 104.050781 72.003906 104.050781 72.242188 C 104.050781 72.273438 104.042969 72.332031 104.03125 72.421875 C 103.988281 72.675781 103.886719 72.867188 103.726562 72.992188 C 103.570312 73.113281 103.386719 73.175781 103.179688 73.175781 C 103.039062 73.175781 102.917969 73.15625 102.820312 73.117188 C 102.722656 73.074219 102.632812 73 102.550781 72.894531 L 101.21875 74.628906 L 100.847656 75.875 C 100.835938 75.910156 100.832031 75.953125 100.832031 76.007812 C 100.832031 76.085938 100.851562 76.148438 100.886719 76.199219 C 100.925781 76.25 100.976562 76.300781 101.050781 76.363281 C 101.109375 76.414062 101.152344 76.460938 101.175781 76.5 C 101.203125 76.535156 101.207031 76.578125 101.195312 76.625 C 101.171875 76.703125 101.121094 76.757812 101.039062 76.789062 C 100.953125 76.816406 100.839844 76.832031 100.695312 76.832031 L 98.660156 76.832031 C 98.519531 76.832031 98.417969 76.804688 98.351562 76.753906 C 98.285156 76.703125 98.261719 76.628906 98.285156 76.542969 C 98.296875 76.496094 98.316406 76.457031 98.34375 76.429688 C 98.371094 76.398438 98.417969 76.359375 98.488281 76.3125 C 98.566406 76.265625 98.632812 76.210938 98.6875 76.152344 C 98.742188 76.089844 98.789062 75.996094 98.824219 75.875 L 99.195312 74.621094 L 98.453125 72.511719 C 98.398438 72.355469 98.335938 72.234375 98.261719 72.148438 C 98.1875 72.066406 98.105469 71.984375 98.007812 71.902344 C 97.949219 71.859375 97.902344 71.824219 97.875 71.789062 C 97.851562 71.757812 97.839844 71.722656 97.839844 71.675781 C 97.839844 71.613281 97.867188 71.5625 97.925781 71.519531 C 97.980469 71.480469 98.0625 71.460938 98.167969 71.460938 L 100.324219 71.460938 C 100.511719 71.460938 100.640625 71.476562 100.707031 71.507812 C 100.78125 71.542969 100.816406 71.597656 100.820312 71.675781 C 100.820312 71.722656 100.8125 71.765625 100.792969 71.800781 C 100.769531 71.839844 100.738281 71.878906 100.695312 71.929688 C 100.648438 71.992188 100.613281 72.046875 100.585938 72.085938 C 100.5625 72.125 100.550781 72.175781 100.550781 72.234375 C 100.550781 72.25 100.554688 72.285156 100.5625 72.335938 L 100.9375 73.757812 L 101.960938 72.300781 C 102.179688 71.988281 102.390625 71.765625 102.585938 71.632812 C 102.78125 71.5 103 71.429688 103.246094 71.429688 Z M 103.246094 71.429688 " fill-opacity="1" fill-rule="nonzero"/></svg>